STARTFONT 2.1
COMMENT $XConsortium: lutRS19.bdf,v 1.3 94/04/02 16:11:44 gildea Exp $
FONT -RFX-SereneTypewriter-Medium-R-Normal-Sans-19-190-75-75-M-110-windows-1251
SIZE 19 72 72
FONTBOUNDINGBOX 12 22 5 -4
STARTPROPERTIES 24
FONTNAME_REGISTRY ""
FOUNDRY "RFX"
FAMILY_NAME "SereneTypewriter"
WEIGHT_NAME "Medium"
SLANT "R"
SETWIDTH_NAME "Normal"
ADD_STYLE_NAME "Sans"
PIXEL_SIZE 19
POINT_SIZE 190
RESOLUTION_X 75
RESOLUTION_Y 75
SPACING "M"
AVERAGE_WIDTH "110"
CHARSET_REGISTRY "windows"
CHARSET_ENCODING "1251"
COPYRIGHT "Copyright Bigelow & Holmes 1986, 1985."
FONT_ASCENT 18
FONT_DESCENT 4
DEFAULT_CHAR 0
FACE_NAME "Lucida Sans Typewriter"
COPYRIGHT2 "Cyrillic, Euro, line drawing and special glyphs copyright 2000 Dmitry Yu. Bolkhovityanov, bolkhov@inp.nsk.su"
SOURCEDATE "Tue Jun 13 18:31:29 2000"
PKGVERSION "1.1"
ASSEMBLER "cvtbdf.pl (Linux)"
ENDPROPERTIES
CHARS 244
STARTCHAR null
ENCODING 0
SWIDTH 602 0
DWIDTH 11 0
BBX 7 14 2 0
BITMAP
FE
FE
FE
FE
FE
FE
FE
FE
FE
FE
FE
FE
FE
FE
ENDCHAR
STARTCHAR ldcornsqlr
ENCODING 11
SWIDTH 602 0
DWIDTH 11 0
BBX 6 14 0 4
BITMAP
04
04
04
04
04
04
04
04
04
04
04
04
04
FC
ENDCHAR
STARTCHAR ldcornsqur
ENCODING 12
SWIDTH 602 0
DWIDTH 11 0
BBX 6 9 0 -4
BITMAP
FC
04
04
04
04
04
04
04
04
ENDCHAR
STARTCHAR ldcornsqul
ENCODING 13
SWIDTH 602 0
DWIDTH 11 0
BBX 6 9 5 -4
BITMAP
FC
80
80
80
80
80
80
80
80
ENDCHAR
STARTCHAR ldcornsqll
ENCODING 14
SWIDTH 602 0
DWIDTH 11 0
BBX 6 14 5 4
BITMAP
80
80
80
80
80
80
80
80
80
80
80
80
80
FC
ENDCHAR
STARTCHAR ldcross
ENCODING 15
SWIDTH 602 0
DWIDTH 11 0
BBX 11 22 0 -4
BITMAP
0400
0400
0400
0400
0400
0400
0400
0400
0400
0400
0400
0400
0400
FFE0
0400
0400
0400
0400
0400
0400
0400
0400
ENDCHAR
STARTCHAR ldhorizontal
ENCODING 18
SWIDTH 602 0
DWIDTH 11 0
BBX 11 1 0 4
BITMAP
FFE0
ENDCHAR
STARTCHAR ldteelft
ENCODING 21
SWIDTH 602 0
DWIDTH 11 0
BBX 6 22 5 -4
BITMAP
80
80
80
80
80
80
80
80
80
80
80
80
80
FC
80
80
80
80
80
80
80
80
ENDCHAR
STARTCHAR ldteert
ENCODING 22
SWIDTH 602 0
DWIDTH 11 0
BBX 6 22 0 -4
BITMAP
04
04
04
04
04
04
04
04
04
04
04
04
04
FC
04
04
04
04
04
04
04
04
ENDCHAR
STARTCHAR ldteebt
ENCODING 23
SWIDTH 602 0
DWIDTH 11 0
BBX 11 14 0 4
BITMAP
0400
0400
0400
0400
0400
0400
0400
0400
0400
0400
0400
0400
0400
FFE0
ENDCHAR
STARTCHAR ldteetp
ENCODING 24
SWIDTH 602 0
DWIDTH 11 0
BBX 11 9 0 -4
BITMAP
FFE0
0400
0400
0400
0400
0400
0400
0400
0400
ENDCHAR
STARTCHAR ldvertical
ENCODING 25
SWIDTH 602 0
DWIDTH 11 0
BBX 1 22 5 -4
BITMAP
80
80
80
80
80
80
80
80
80
80
80
80
80
80
80
80
80
80
80
80
80
80
ENDCHAR
STARTCHAR space
ENCODING 32
SWIDTH 602 0
DWIDTH 11 0
BBX 0 0 0 0
BITMAP
ENDCHAR
STARTCHAR exclam
ENCODING 33
SWIDTH 602 0
DWIDTH 11 0
BBX 2 14 5 0
BITMAP
C0
C0
C0
C0
C0
C0
80
80
80
80
00
00
80
80
ENDCHAR
STARTCHAR quotedbl
ENCODING 34
SWIDTH 602 0
DWIDTH 11 0
BBX 6 5 3 9
BITMAP
CC
CC
CC
84
84
ENDCHAR
STARTCHAR numbersign
ENCODING 35
SWIDTH 602 0
DWIDTH 11 0
BBX 11 14 0 0
BITMAP
04C0
0C80
0880
0880
7FE0
1100
1100
1100
FFC0
2200
2200
2200
2400
4400
ENDCHAR
STARTCHAR dollar
ENCODING 36
SWIDTH 602 0
DWIDTH 11 0
BBX 7 17 2 -2
BITMAP
10
7E
D2
D0
D0
D0
70
38
1C
1E
16
16
16
DC
FC
10
10
ENDCHAR
STARTCHAR percent
ENCODING 37
SWIDTH 602 0
DWIDTH 11 0
BBX 10 14 1 0
BITMAP
70C0
D880
8900
8900
DA00
7600
0400
0B80
1EC0
1440
2440
2440
46C0
C380
ENDCHAR
STARTCHAR ampersand
ENCODING 38
SWIDTH 602 0
DWIDTH 11 0
BBX 11 14 0 0
BITMAP
1E00
3300
3300
3300
3600
1C00
3800
4C60
CE60
C640
C7C0
C380
6380
3EE0
ENDCHAR
STARTCHAR quotesingle
ENCODING 39
SWIDTH 602 0
DWIDTH 11 0
BBX 3 5 4 10
BITMAP
E0
E0
20
60
C0
ENDCHAR
STARTCHAR parenleft
ENCODING 40
SWIDTH 602 0
DWIDTH 11 0
BBX 7 17 3 -3
BITMAP
0E
1C
30
60
60
C0
C0
C0
C0
C0
C0
40
60
20
30
1C
06
ENDCHAR
STARTCHAR parenright
ENCODING 41
SWIDTH 602 0
DWIDTH 11 0
BBX 7 17 1 -3
BITMAP
C0
70
18
0C
0C
06
06
06
06
06
06
06
0C
0C
18
70
C0
ENDCHAR
STARTCHAR asterisk
ENCODING 42
SWIDTH 602 0
DWIDTH 11 0
BBX 8 8 2 6
BITMAP
18
18
DB
E7
00
3C
66
24
ENDCHAR
STARTCHAR plus
ENCODING 43
SWIDTH 602 0
DWIDTH 11 0
BBX 9 10 1 0
BITMAP
0800
0800
0800
0800
FF80
0800
0800
0800
0800
0800
ENDCHAR
STARTCHAR comma
ENCODING 44
SWIDTH 602 0
DWIDTH 11 0
BBX 3 7 4 -4
BITMAP
E0
E0
E0
20
60
60
C0
ENDCHAR
STARTCHAR minus
ENCODING 45
SWIDTH 602 0
DWIDTH 11 0
BBX 10 1 1 4
BITMAP
FFC0
ENDCHAR
STARTCHAR period
ENCODING 46
SWIDTH 602 0
DWIDTH 11 0
BBX 3 2 4 0
BITMAP
E0
E0
ENDCHAR
STARTCHAR slash
ENCODING 47
SWIDTH 602 0
DWIDTH 11 0
BBX 10 17 1 -3
BITMAP
00C0
0080
0180
0100
0300
0200
0600
0400
0C00
0800
1800
1000
3000
2000
6000
4000
C000
ENDCHAR
STARTCHAR zero
ENCODING 48
SWIDTH 602 0
DWIDTH 11 0
BBX 9 14 1 0
BITMAP
1C00
6300
6300
C180
C180
C180
C180
C180
C180
C180
C180
6300
6300
1C00
ENDCHAR
STARTCHAR one
ENCODING 49
SWIDTH 602 0
DWIDTH 11 0
BBX 10 14 1 0
BITMAP
0400
7C00
8C00
0C00
0C00
0C00
0C00
0C00
0C00
0C00
0C00
0C00
0C00
FFC0
ENDCHAR
STARTCHAR two
ENCODING 50
SWIDTH 602 0
DWIDTH 11 0
BBX 8 14 1 0
BITMAP
7C
86
03
03
03
03
06
0C
18
30
60
60
C0
FF
ENDCHAR
STARTCHAR three
ENCODING 51
SWIDTH 602 0
DWIDTH 11 0
BBX 8 14 2 0
BITMAP
FC
87
03
03
03
06
78
0E
03
03
03
03
86
FC
ENDCHAR
STARTCHAR four
ENCODING 52
SWIDTH 602 0
DWIDTH 11 0
BBX 10 14 1 0
BITMAP
0300
0700
0700
0B00
1300
3300
2300
4300
C300
FFC0
0300
0300
0300
0300
ENDCHAR
STARTCHAR five
ENCODING 53
SWIDTH 602 0
DWIDTH 11 0
BBX 7 14 3 0
BITMAP
FE
80
80
80
80
F0
1C
0C
06
06
06
06
8C
F8
ENDCHAR
STARTCHAR six
ENCODING 54
SWIDTH 602 0
DWIDTH 11 0
BBX 9 14 1 0
BITMAP
1F00
3100
6000
4000
C000
DE00
E300
C180
C180
C180
C180
4180
6300
1E00
ENDCHAR
STARTCHAR seven
ENCODING 55
SWIDTH 602 0
DWIDTH 11 0
BBX 8 14 2 0
BITMAP
FF
FF
02
02
04
04
08
08
10
10
30
20
60
60
ENDCHAR
STARTCHAR eight
ENCODING 56
SWIDTH 602 0
DWIDTH 11 0
BBX 9 14 1 0
BITMAP
1E00
3300
6100
6100
7300
3E00
1C00
2F00
4380
C180
C180
C180
6300
3E00
ENDCHAR
STARTCHAR nine
ENCODING 57
SWIDTH 602 0
DWIDTH 11 0
BBX 9 14 1 0
BITMAP
3C00
6300
C100
C180
C180
C180
C180
6380
3D80
0180
0100
0300
4600
7C00
ENDCHAR
STARTCHAR colon
ENCODING 58
SWIDTH 602 0
DWIDTH 11 0
BBX 2 10 5 0
BITMAP
C0
C0
00
00
00
00
00
00
C0
C0
ENDCHAR
STARTCHAR semicolon
ENCODING 59
SWIDTH 602 0
DWIDTH 11 0
BBX 2 14 5 -4
BITMAP
C0
C0
00
00
00
00
00
C0
C0
C0
40
40
40
80
ENDCHAR
STARTCHAR less
ENCODING 60
SWIDTH 602 0
DWIDTH 11 0
BBX 10 10 1 0
BITMAP
0040
01C0
0700
1C00
F000
7000
1C00
0700
01C0
0040
ENDCHAR
STARTCHAR equal
ENCODING 61
SWIDTH 602 0
DWIDTH 11 0
BBX 10 5 1 2
BITMAP
FFC0
0000
0000
0000
FFC0
ENDCHAR
STARTCHAR greater
ENCODING 62
SWIDTH 602 0
DWIDTH 11 0
BBX 10 10 1 0
BITMAP
8000
E000
3800
0E00
0380
03C0
0E00
3800
E000
8000
ENDCHAR
STARTCHAR question
ENCODING 63
SWIDTH 602 0
DWIDTH 11 0
BBX 9 14 1 0
BITMAP
FE00
8300
8180
0180
0100
0200
0400
0800
1800
1800
0000
0000
1800
1800
ENDCHAR
STARTCHAR at
ENCODING 64
SWIDTH 602 0
DWIDTH 11 0
BBX 11 14 1 0
BITMAP
0F80
30C0
6040
43C0
8440
8840
8840
88C0
88C0
89C0
4760
4000
3080
1F00
ENDCHAR
STARTCHAR A
ENCODING 65
SWIDTH 602 0
DWIDTH 11 0
BBX 11 14 0 0
BITMAP
0600
0E00
0E00
0B00
1300
1300
1180
2180
2180
3FC0
40C0
40C0
4060
8060
ENDCHAR
STARTCHAR B
ENCODING 66
SWIDTH 602 0
DWIDTH 11 0
BBX 9 14 1 0
BITMAP
FE00
C700
C300
C300
C300
C600
FC00
C600
C300
C180
C180
C180
C300
FE00
ENDCHAR
STARTCHAR C
ENCODING 67
SWIDTH 602 0
DWIDTH 11 0
BBX 10 14 1 0
BITMAP
0FC0
3840
6000
6000
C000
C000
C000
C000
C000
C000
6000
6000
3840
0FC0
ENDCHAR
STARTCHAR D
ENCODING 68
SWIDTH 602 0
DWIDTH 11 0
BBX 10 14 1 0
BITMAP
FE00
C300
C180
C0C0
C0C0
C0C0
C0C0
C0C0
C0C0
C0C0
C180
C180
C300
FE00
ENDCHAR
STARTCHAR E
ENCODING 69
SWIDTH 602 0
DWIDTH 11 0
BBX 9 14 2 0
BITMAP
FF80
C000
C000
C000
C000
C000
FF00
C000
C000
C000
C000
C000
C000
FF80
ENDCHAR
STARTCHAR F
ENCODING 70
SWIDTH 602 0
DWIDTH 11 0
BBX 9 14 2 0
BITMAP
FF80
C000
C000
C000
C000
C000
FF00
C000
C000
C000
C000
C000
C000
C000
ENDCHAR
STARTCHAR G
ENCODING 71
SWIDTH 602 0
DWIDTH 11 0
BBX 10 14 1 0
BITMAP
0FC0
3040
6000
6000
C000
C000
C000
C000
C0C0
C0C0
60C0
60C0
38C0
0FC0
ENDCHAR
STARTCHAR H
ENCODING 72
SWIDTH 602 0
DWIDTH 11 0
BBX 9 14 1 0
BITMAP
C180
C180
C180
C180
C180
C180
FF80
C180
C180
C180
C180
C180
C180
C180
ENDCHAR
STARTCHAR I
ENCODING 73
SWIDTH 602 0
DWIDTH 11 0
BBX 8 14 2 0
BITMAP
FF
18
18
18
18
18
18
18
18
18
18
18
18
FF
ENDCHAR
STARTCHAR J
ENCODING 74
SWIDTH 602 0
DWIDTH 11 0
BBX 7 14 2 0
BITMAP
7E
06
06
06
06
06
06
06
06
06
06
06
8C
F8
ENDCHAR
STARTCHAR K
ENCODING 75
SWIDTH 602 0
DWIDTH 11 0
BBX 10 14 1 0
BITMAP
C180
C300
C200
C400
C800
D800
D000
F800
DC00
CE00
C600
C300
C380
C1C0
ENDCHAR
STARTCHAR L
ENCODING 76
SWIDTH 602 0
DWIDTH 11 0
BBX 8 14 2 0
BITMAP
C0
C0
C0
C0
C0
C0
C0
C0
C0
C0
C0
C0
C0
FF
ENDCHAR
STARTCHAR M
ENCODING 77
SWIDTH 602 0
DWIDTH 11 0
BBX 10 14 1 0
BITMAP
C0C0
C0C0
E1C0
A140
A140
A140
9240
9240
9240
9240
8C40
8C40
8C40
8040
ENDCHAR
STARTCHAR N
ENCODING 78
SWIDTH 602 0
DWIDTH 11 0
BBX 9 14 1 0
BITMAP
C080
E080
E080
F080
B080
9880
9880
8C80
8E80
8680
8780
8380
8180
8180
ENDCHAR
STARTCHAR O
ENCODING 79
SWIDTH 602 0
DWIDTH 11 0
BBX 10 14 1 0
BITMAP
1E00
3300
6180
4080
C0C0
C0C0
C0C0
C0C0
C0C0
C0C0
4080
6180
3300
1E00
ENDCHAR
STARTCHAR P
ENCODING 80
SWIDTH 602 0
DWIDTH 11 0
BBX 9 14 2 0
BITMAP
FE00
C380
C180
C180
C180
C180
C300
FC00
C000
C000
C000
C000
C000
C000
ENDCHAR
STARTCHAR Q
ENCODING 81
SWIDTH 602 0
DWIDTH 11 0
BBX 11 18 1 -4
BITMAP
1E00
3300
6180
4080
C0C0
C0C0
C0C0
C0C0
C0C0
C0C0
40C0
6180
3380
1F00
0200
0100
00E0
0040
ENDCHAR
STARTCHAR R
ENCODING 82
SWIDTH 602 0
DWIDTH 11 0
BBX 10 14 1 0
BITMAP
FC00
C700
C300
C300
C300
C700
FE00
CC00
CC00
C600
C700
C300
C180
C1C0
ENDCHAR
STARTCHAR S
ENCODING 83
SWIDTH 602 0
DWIDTH 11 0
BBX 9 14 1 0
BITMAP
3F00
6100
C000
C000
E000
7000
3C00
0F00
0380
0180
0180
0180
8300
7E00
ENDCHAR
STARTCHAR T
ENCODING 84
SWIDTH 602 0
DWIDTH 11 0
BBX 12 14 0 0
BITMAP
FFF0
0600
0600
0600
0600
0600
0600
0600
0600
0600
0600
0600
0600
0600
ENDCHAR
STARTCHAR U
ENCODING 85
SWIDTH 602 0
DWIDTH 11 0
BBX 9 14 1 0
BITMAP
C080
C080
C080
C080
C080
C080
C080
C080
C080
C080
C080
C080
6100
3E00
ENDCHAR
STARTCHAR V
ENCODING 86
SWIDTH 602 0
DWIDTH 11 0
BBX 11 14 0 0
BITMAP
C020
C040
6040
6040
6080
3080
3080
3100
1900
1900
1A00
0E00
0E00
0C00
ENDCHAR
STARTCHAR W
ENCODING 87
SWIDTH 602 0
DWIDTH 11 0
BBX 11 14 0 0
BITMAP
8020
8C20
8C20
8C60
9E40
DE40
DA40
5240
52C0
53C0
73C0
7180
6180
6180
ENDCHAR
STARTCHAR X
ENCODING 88
SWIDTH 602 0
DWIDTH 11 0
BBX 11 14 0 0
BITMAP
E040
60C0
3080
3900
1B00
0E00
0E00
0E00
0F00
1300
3180
21C0
40C0
C060
ENDCHAR
STARTCHAR Y
ENCODING 89
SWIDTH 602 0
DWIDTH 11 0
BBX 12 14 0 0
BITMAP
E030
6020
7040
3080
1880
1D00
0F00
0600
0600
0600
0600
0600
0600
0600
ENDCHAR
STARTCHAR Z
ENCODING 90
SWIDTH 602 0
DWIDTH 11 0
BBX 10 14 1 0
BITMAP
FFC0
01C0
0180
0380
0700
0600
0E00
1C00
1800
3000
7000
6000
C000
FFC0
ENDCHAR
STARTCHAR bracketleft
ENCODING 91
SWIDTH 602 0
DWIDTH 11 0
BBX 5 17 4 -3
BITMAP
F8
80
80
80
80
80
80
80
80
80
80
80
80
80
80
80
F8
ENDCHAR
STARTCHAR backslash
ENCODING 92
SWIDTH 602 0
DWIDTH 11 0
BBX 10 17 1 -3
BITMAP
C000
4000
6000
2000
3000
1000
1800
0800
0C00
0400
0600
0200
0300
0100
0180
0080
00C0
ENDCHAR
STARTCHAR bracketright
ENCODING 93
SWIDTH 602 0
DWIDTH 11 0
BBX 5 17 2 -3
BITMAP
F8
08
08
08
08
08
08
08
08
08
08
08
08
08
08
08
F8
ENDCHAR
STARTCHAR asciicircum
ENCODING 94
SWIDTH 602 0
DWIDTH 11 0
BBX 10 10 1 3
BITMAP
0400
0C00
0C00
1200
1200
2100
2100
4080
4080
C0C0
ENDCHAR
STARTCHAR underscore
ENCODING 95
SWIDTH 602 0
DWIDTH 11 0
BBX 11 1 0 -2
BITMAP
FFE0
ENDCHAR
STARTCHAR grave
ENCODING 96
SWIDTH 602 0
DWIDTH 11 0
BBX 3 5 4 10
BITMAP
60
C0
80
E0
E0
ENDCHAR
STARTCHAR a
ENCODING 97
SWIDTH 602 0
DWIDTH 11 0
BBX 10 10 1 0
BITMAP
7E00
4300
0300
0300
3F00
6300
C300
C300
C700
7DC0
ENDCHAR
STARTCHAR b
ENCODING 98
SWIDTH 602 0
DWIDTH 11 0
BBX 9 14 1 0
BITMAP
C000
C000
C000
C000
DE00
E300
C180
C180
C180
C180
C180
C300
E300
DE00
ENDCHAR
STARTCHAR c
ENCODING 99
SWIDTH 602 0
DWIDTH 11 0
BBX 9 10 1 0
BITMAP
1F80
7080
6000
C000
C000
C000
C000
6000
7080
1F80
ENDCHAR
STARTCHAR d
ENCODING 100
SWIDTH 602 0
DWIDTH 11 0
BBX 9 14 1 0
BITMAP
0180
0180
0180
0180
3D80
6380
6180
C180
C180
C180
C180
C180
6380
3D80
ENDCHAR
STARTCHAR e
ENCODING 101
SWIDTH 602 0
DWIDTH 11 0
BBX 9 10 1 0
BITMAP
1E00
6300
4180
C180
FF80
C000
C000
4000
6080
1F80
ENDCHAR
STARTCHAR f
ENCODING 102
SWIDTH 602 0
DWIDTH 11 0
BBX 10 15 1 0
BITMAP
0FC0
1C00
1800
1800
1800
FFC0
1800
1800
1800
1800
1800
1800
1800
1800
1800
ENDCHAR
STARTCHAR g
ENCODING 103
SWIDTH 602 0
DWIDTH 11 0
BBX 9 14 1 -4
BITMAP
1E80
6380
6180
C180
C180
C180
C180
C180
6380
3D80
0180
0180
4300
7E00
ENDCHAR
STARTCHAR h
ENCODING 104
SWIDTH 602 0
DWIDTH 11 0
BBX 8 14 2 0
BITMAP
C0
C0
C0
C0
CE
DF
E3
C3
C3
C3
C3
C3
C3
C3
ENDCHAR
STARTCHAR i
ENCODING 105
SWIDTH 602 0
DWIDTH 11 0
BBX 6 14 1 0
BITMAP
0C
0C
00
00
FC
0C
0C
0C
0C
0C
0C
0C
0C
0C
ENDCHAR
STARTCHAR j
ENCODING 106
SWIDTH 602 0
DWIDTH 11 0
BBX 7 18 1 -4
BITMAP
06
06
00
00
7E
06
06
06
06
06
06
06
06
06
06
06
8E
FC
ENDCHAR
STARTCHAR k
ENCODING 107
SWIDTH 602 0
DWIDTH 11 0
BBX 9 14 2 0
BITMAP
C000
C000
C000
C000
C300
C400
CC00
D800
D000
F800
DC00
CE00
C700
C380
ENDCHAR
STARTCHAR l
ENCODING 108
SWIDTH 602 0
DWIDTH 11 0
BBX 6 14 1 0
BITMAP
FC
0C
0C
0C
0C
0C
0C
0C
0C
0C
0C
0C
0C
0C
ENDCHAR
STARTCHAR m
ENCODING 109
SWIDTH 602 0
DWIDTH 11 0
BBX 11 10 0 0
BITMAP
B9E0
E720
C620
8420
8420
8420
8420
8420
8420
8420
ENDCHAR
STARTCHAR n
ENCODING 110
SWIDTH 602 0
DWIDTH 11 0
BBX 8 10 2 0
BITMAP
CE
DF
E3
C3
C3
C3
C3
C3
C3
C3
ENDCHAR
STARTCHAR o
ENCODING 111
SWIDTH 602 0
DWIDTH 11 0
BBX 10 10 1 0
BITMAP
1E00
6180
6180
C0C0
C0C0
C0C0
C0C0
6180
6180
1E00
ENDCHAR
STARTCHAR p
ENCODING 112
SWIDTH 602 0
DWIDTH 11 0
BBX 9 14 2 -4
BITMAP
DE00
E300
C180
C180
C180
C180
C180
C300
E300
DE00
C000
C000
C000
C000
ENDCHAR
STARTCHAR q
ENCODING 113
SWIDTH 602 0
DWIDTH 11 0
BBX 9 14 1 -4
BITMAP
3D80
6380
6180
C180
C180
C180
C180
C180
6380
3D80
0180
0180
0180
0180
ENDCHAR
STARTCHAR r
ENCODING 114
SWIDTH 602 0
DWIDTH 11 0
BBX 8 10 3 0
BITMAP
DF
F1
E1
C0
C0
C0
C0
C0
C0
C0
ENDCHAR
STARTCHAR s
ENCODING 115
SWIDTH 602 0
DWIDTH 11 0
BBX 8 10 2 0
BITMAP
3E
C2
C0
E0
7C
1F
07
03
86
FC
ENDCHAR
STARTCHAR t
ENCODING 116
SWIDTH 602 0
DWIDTH 11 0
BBX 10 13 1 0
BITMAP
1800
1800
1800
FFC0
1800
1800
1800
1800
1800
1800
1800
1C00
0FC0
ENDCHAR
STARTCHAR u
ENCODING 117
SWIDTH 602 0
DWIDTH 11 0
BBX 8 10 2 0
BITMAP
C3
C3
C3
C3
C3
C3
C3
C7
FB
73
ENDCHAR
STARTCHAR v
ENCODING 118
SWIDTH 602 0
DWIDTH 11 0
BBX 10 10 1 0
BITMAP
C0C0
E080
6080
6100
3100
3200
3A00
1A00
1C00
0C00
ENDCHAR
STARTCHAR w
ENCODING 119
SWIDTH 602 0
DWIDTH 11 0
BBX 11 10 0 0
BITMAP
C020
C420
CA40
6A40
6A40
6A40
71C0
7180
7180
3180
ENDCHAR
STARTCHAR x
ENCODING 120
SWIDTH 602 0
DWIDTH 11 0
BBX 10 10 1 0
BITMAP
E080
7100
3300
1A00
1C00
0E00
1600
2300
6380
C1C0
ENDCHAR
STARTCHAR y
ENCODING 121
SWIDTH 602 0
DWIDTH 11 0
BBX 10 14 1 -4
BITMAP
C0C0
E080
6080
6100
3100
3200
1A00
1A00
1C00
0C00
0800
0800
1000
6000
ENDCHAR
STARTCHAR z
ENCODING 122
SWIDTH 602 0
DWIDTH 11 0
BBX 9 10 1 0
BITMAP
FF80
0100
0200
0400
0C00
1800
3000
2000
4000
FF80
ENDCHAR
STARTCHAR braceleft
ENCODING 123
SWIDTH 602 0
DWIDTH 11 0
BBX 7 17 2 -3
BITMAP
1E
30
30
30
10
10
10
30
C0
30
10
10
30
30
30
30
1E
ENDCHAR
STARTCHAR bar
ENCODING 124
SWIDTH 602 0
DWIDTH 11 0
BBX 1 17 5 -3
BITMAP
80
80
80
80
80
80
80
80
80
80
80
80
80
80
80
80
80
ENDCHAR
STARTCHAR braceright
ENCODING 125
SWIDTH 602 0
DWIDTH 11 0
BBX 7 17 2 -3
BITMAP
F0
18
18
18
18
10
10
18
0E
18
10
10
18
18
18
18
F0
ENDCHAR
STARTCHAR asciitilde
ENCODING 126
SWIDTH 602 0
DWIDTH 11 0
BBX 10 4 1 3
BITMAP
7040
4840
8480
8380
ENDCHAR
STARTCHAR afii10051
ENCODING 128
SWIDTH 602 0
DWIDTH 11 0
BBX 10 14 0 0
BITMAP
FF00
6000
6000
6000
6000
6F80
71C0
60C0
60C0
60C0
60C0
60C0
61C0
6780
ENDCHAR
STARTCHAR afii10052
ENCODING 129
SWIDTH 602 0
DWIDTH 11 0
BBX 8 17 2 0
BITMAP
1C
30
00
FF
C0
C0
C0
C0
C0
C0
C0
C0
C0
C0
C0
C0
C0
ENDCHAR
STARTCHAR quotesinglbase
ENCODING 130
SWIDTH 602 0
DWIDTH 11 0
BBX 3 5 4 -3
BITMAP
E0
E0
20
60
C0
ENDCHAR
STARTCHAR afii10100
ENCODING 131
SWIDTH 602 0
DWIDTH 11 0
BBX 7 13 3 0
BITMAP
38
60
00
FE
C0
C0
C0
C0
C0
C0
C0
C0
C0
ENDCHAR
STARTCHAR quotedblbase
ENCODING 132
SWIDTH 602 0
DWIDTH 11 0
BBX 8 5 1 -3
BITMAP
E7
E7
21
63
C6
ENDCHAR
STARTCHAR ellipsis
ENCODING 133
SWIDTH 602 0
DWIDTH 11 0
BBX 8 2 1 0
BITMAP
C3
C3
ENDCHAR
STARTCHAR dagger
ENCODING 134
SWIDTH 602 0
DWIDTH 11 0
BBX 8 17 2 -3
BITMAP
18
18
18
18
18
FF
18
18
18
18
18
18
18
18
18
18
18
ENDCHAR
STARTCHAR daggerdbl
ENCODING 135
SWIDTH 602 0
DWIDTH 11 0
BBX 8 17 2 -3
BITMAP
18
18
18
18
18
FF
18
18
18
18
FF
18
18
18
18
18
18
ENDCHAR
STARTCHAR Euro
ENCODING 136
SWIDTH 602 0
DWIDTH 11 0
BBX 10 14 1 0
BITMAP
07C0
1C40
3000
3000
6000
FF00
6000
FE00
6000
6000
3000
3000
1C40
07C0
ENDCHAR
STARTCHAR perthousand
ENCODING 137
SWIDTH 602 0
DWIDTH 11 0
BBX 11 14 0 0
BITMAP
6000
9000
9000
9000
9200
9400
6800
16C0
2920
4920
8920
0920
0920
06C0
ENDCHAR
STARTCHAR afii10058
ENCODING 138
SWIDTH 602 0
DWIDTH 11 0
BBX 11 14 0 0
BITMAP
7E00
6600
6600
6600
6600
6600
6780
66C0
6640
6660
6660
6660
66C0
C780
ENDCHAR
STARTCHAR guilsinglleft
ENCODING 139
SWIDTH 602 0
DWIDTH 11 0
BBX 6 9 2 0
BITMAP
0C
18
30
60
C0
60
30
18
0C
ENDCHAR
STARTCHAR afii10059
ENCODING 140
SWIDTH 602 0
DWIDTH 11 0
BBX 10 14 1 0
BITMAP
CC00
CC00
CC00
CC00
CC00
CC00
FF00
CD80
CC80
CCC0
CCC0
CCC0
CD80
CF00
ENDCHAR
STARTCHAR afii10061
ENCODING 141
SWIDTH 602 0
DWIDTH 11 0
BBX 10 17 1 0
BITMAP
1C00
3000
0000
C180
C300
C200
C400
C800
D800
D000
F800
DC00
CE00
C600
C300
C380
C1C0
ENDCHAR
STARTCHAR afii10060
ENCODING 142
SWIDTH 602 0
DWIDTH 11 0
BBX 10 14 0 0
BITMAP
FF00
6000
6000
6000
6000
6F80
71C0
60C0
60C0
60C0
60C0
60C0
60C0
60C0
ENDCHAR
STARTCHAR afii10145
ENCODING 143
SWIDTH 602 0
DWIDTH 11 0
BBX 9 17 1 -3
BITMAP
C180
C180
C180
C180
C180
C180
C180
C180
C180
C180
C180
C180
C180
FF80
0C00
0C00
0C00
ENDCHAR
STARTCHAR afii10099
ENCODING 144
SWIDTH 602 0
DWIDTH 11 0
BBX 9 14 1 0
BITMAP
6000
6000
FC00
6000
6700
6F80
7180
6180
6180
6180
6180
6180
6180
6180
ENDCHAR
STARTCHAR quoteleft
ENCODING 145
SWIDTH 602 0
DWIDTH 11 0
BBX 3 5 4 9
BITMAP
60
C0
80
E0
E0
ENDCHAR
STARTCHAR quoteright
ENCODING 146
SWIDTH 602 0
DWIDTH 11 0
BBX 3 5 4 9
BITMAP
E0
E0
20
60
C0
ENDCHAR
STARTCHAR quotedblleft
ENCODING 147
SWIDTH 602 0
DWIDTH 11 0
BBX 8 5 1 10
BITMAP
63
C6
84
E7
E7
ENDCHAR
STARTCHAR quotedblright
ENCODING 148
SWIDTH 602 0
DWIDTH 11 0
BBX 8 5 1 10
BITMAP
E7
E7
21
63
C6
ENDCHAR
STARTCHAR bullet
ENCODING 149
SWIDTH 602 0
DWIDTH 11 0
BBX 5 5 3 4
BITMAP
70
F8
F8
F8
70
ENDCHAR
STARTCHAR endash
ENCODING 150
SWIDTH 602 0
DWIDTH 11 0
BBX 7 1 2 4
BITMAP
FE
ENDCHAR
STARTCHAR emdash
ENCODING 151
SWIDTH 602 0
DWIDTH 11 0
BBX 9 1 1 4
BITMAP
FF80
ENDCHAR
STARTCHAR trademark
ENCODING 153
SWIDTH 602 0
DWIDTH 11 0
BBX 11 7 0 7
BITMAP
FE60
2660
25A0
25A0
25A0
2420
2420
ENDCHAR
STARTCHAR afii10106
ENCODING 154
SWIDTH 602 0
DWIDTH 11 0
BBX 11 10 0 0
BITMAP
7E00
6600
6600
6600
6780
66C0
6660
6660
6660
C7C0
ENDCHAR
STARTCHAR guilsinglright
ENCODING 155
SWIDTH 602 0
DWIDTH 11 0
BBX 6 9 2 0
BITMAP
C0
60
30
18
0C
18
30
60
C0
ENDCHAR
STARTCHAR afii10107
ENCODING 156
SWIDTH 602 0
DWIDTH 11 0
BBX 10 10 1 0
BITMAP
CC00
CC00
CC00
CC00
FF00
CD80
CCC0
CCC0
CCC0
CF80
ENDCHAR
STARTCHAR afii10109
ENCODING 157
SWIDTH 602 0
DWIDTH 11 0
BBX 9 13 2 0
BITMAP
1C00
3000
0000
C300
C400
CC00
D800
D000
F800
DC00
CE00
C700
C380
ENDCHAR
STARTCHAR afii10108
ENCODING 158
SWIDTH 602 0
DWIDTH 11 0
BBX 9 18 1 -4
BITMAP
6000
6000
FC00
6000
6700
6F80
7180
6180
6180
6180
6180
6180
6180
6180
0180
0180
0380
0F00
ENDCHAR
STARTCHAR afii10193
ENCODING 159
SWIDTH 602 0
DWIDTH 11 0
BBX 8 12 2 -2
BITMAP
C3
C3
C3
C3
C3
C3
C3
C3
C3
FF
18
18
ENDCHAR
STARTCHAR space
ENCODING 160
SWIDTH 602 0
DWIDTH 11 0
BBX 0 0 0 0
BITMAP
ENDCHAR
STARTCHAR afii10062
ENCODING 161
SWIDTH 602 0
DWIDTH 11 0
BBX 11 17 0 0
BITMAP
1B00
0E00
0000
C060
C060
60C0
60C0
3180
3180
1B00
1B00
0E00
0E00
0C00
1C00
7800
7000
ENDCHAR
STARTCHAR afii10110
ENCODING 162
SWIDTH 602 0
DWIDTH 11 0
BBX 10 17 1 -4
BITMAP
3300
1E00
0000
C0C0
E080
6080
6100
3100
3200
1A00
1A00
1C00
0C00
0800
0800
1000
6000
ENDCHAR
STARTCHAR afii10057
ENCODING 163
SWIDTH 602 0
DWIDTH 11 0
BBX 7 14 2 0
BITMAP
7E
06
06
06
06
06
06
06
06
06
06
06
8C
F8
ENDCHAR
STARTCHAR currency
ENCODING 164
SWIDTH 602 0
DWIDTH 11 0
BBX 9 10 1 2
BITMAP
8080
4100
7F00
6300
4100
4100
4100
6300
7F00
8080
ENDCHAR
STARTCHAR afii10050
ENCODING 165
SWIDTH 602 0
DWIDTH 11 0
BBX 8 17 2 0
BITMAP
03
03
03
FF
C0
C0
C0
C0
C0
C0
C0
C0
C0
C0
C0
C0
C0
ENDCHAR
STARTCHAR brokenbar
ENCODING 166
SWIDTH 602 0
DWIDTH 11 0
BBX 1 17 5 -3
BITMAP
80
80
80
80
80
80
80
00
00
00
80
80
80
80
80
80
80
ENDCHAR
STARTCHAR section
ENCODING 167
SWIDTH 602 0
DWIDTH 11 0
BBX 7 18 2 -4
BITMAP
3E
42
80
80
E0
F0
F8
8C
84
C4
E4
78
3C
0E
06
06
8C
F8
ENDCHAR
STARTCHAR afii10023
ENCODING 168
SWIDTH 602 0
DWIDTH 11 0
BBX 9 17 2 0
BITMAP
3300
3300
0000
FF80
C000
C000
C000
C000
C000
FF00
C000
C000
C000
C000
C000
C000
FF80
ENDCHAR
STARTCHAR copyright
ENCODING 169
SWIDTH 602 0
DWIDTH 11 0
BBX 10 14 1 0
BITMAP
1F00
2180
4080
8F40
9140
A040
A040
A040
A040
9140
8E40
4080
6100
3E00
ENDCHAR
STARTCHAR afii10053
ENCODING 170
SWIDTH 602 0
DWIDTH 11 0
BBX 10 14 1 0
BITMAP
0FC0
3840
6000
6000
C000
C000
FF00
C000
C000
C000
6000
6000
3840
0FC0
ENDCHAR
STARTCHAR guillemotleft
ENCODING 171
SWIDTH 602 0
DWIDTH 11 0
BBX 9 8 1 1
BITMAP
0880
1100
2200
CC00
4400
2200
1100
0880
ENDCHAR
STARTCHAR logicalnot
ENCODING 172
SWIDTH 602 0
DWIDTH 11 0
BBX 10 4 1 3
BITMAP
FFC0
0040
0040
0040
ENDCHAR
STARTCHAR hyphen
ENCODING 173
SWIDTH 602 0
DWIDTH 11 0
BBX 8 1 2 6
BITMAP
FF
ENDCHAR
STARTCHAR registered
ENCODING 174
SWIDTH 602 0
DWIDTH 11 0
BBX 7 8 2 6
BITMAP
38
44
BA
AA
B2
AA
44
38
ENDCHAR
STARTCHAR afii10056
ENCODING 175
SWIDTH 602 0
DWIDTH 11 0
BBX 8 17 2 0
BITMAP
66
66
00
FF
18
18
18
18
18
18
18
18
18
18
18
18
FF
ENDCHAR
STARTCHAR degree
ENCODING 176
SWIDTH 602 0
DWIDTH 11 0
BBX 3 3 4 11
BITMAP
E0
A0
E0
ENDCHAR
STARTCHAR plusminus
ENCODING 177
SWIDTH 602 0
DWIDTH 11 0
BBX 9 10 1 0
BITMAP
0800
0800
0800
FF80
0800
0800
0800
0800
0000
FF80
ENDCHAR
STARTCHAR afii10055
ENCODING 178
SWIDTH 602 0
DWIDTH 11 0
BBX 8 14 2 0
BITMAP
FF
18
18
18
18
18
18
18
18
18
18
18
18
FF
ENDCHAR
STARTCHAR afii10103
ENCODING 179
SWIDTH 602 0
DWIDTH 11 0
BBX 6 14 1 0
BITMAP
0C
0C
00
00
FC
0C
0C
0C
0C
0C
0C
0C
0C
0C
ENDCHAR
STARTCHAR afii10098
ENCODING 180
SWIDTH 602 0
DWIDTH 11 0
BBX 7 12 3 0
BITMAP
06
06
FE
C0
C0
C0
C0
C0
C0
C0
C0
C0
ENDCHAR
STARTCHAR mu
ENCODING 181
SWIDTH 602 0
DWIDTH 11 0
BBX 8 13 2 -3
BITMAP
C3
C3
C3
C3
C3
C3
C3
C7
FB
FB
C0
C0
C0
ENDCHAR
STARTCHAR paragraph
ENCODING 182
SWIDTH 602 0
DWIDTH 11 0
BBX 7 17 2 -3
BITMAP
7E
FA
FA
FA
FA
7A
3A
0A
0A
0A
0A
0A
0A
0A
0A
0A
0A
ENDCHAR
STARTCHAR periodcentered
ENCODING 183
SWIDTH 602 0
DWIDTH 11 0
BBX 2 2 5 4
BITMAP
C0
C0
ENDCHAR
STARTCHAR afii10071
ENCODING 184
SWIDTH 602 0
DWIDTH 11 0
BBX 9 14 1 0
BITMAP
3300
3300
0000
0000
1E00
6300
4180
C180
FF80
C000
C000
4000
6080
1F80
ENDCHAR
STARTCHAR afii61352
ENCODING 185
SWIDTH 602 0
DWIDTH 11 0
BBX 10 14 1 0
BITMAP
8400
C400
C400
E400
E400
A400
B400
B480
9540
9D40
9D40
8C80
8C00
85C0
ENDCHAR
STARTCHAR afii10101
ENCODING 186
SWIDTH 602 0
DWIDTH 11 0
BBX 9 10 1 0
BITMAP
1F80
7080
6000
C000
FE00
C000
C000
6000
7080
1F80
ENDCHAR
STARTCHAR guillemotright
ENCODING 187
SWIDTH 602 0
DWIDTH 11 0
BBX 9 8 1 1
BITMAP
8800
4400
2200
1100
1980
2200
4400
8800
ENDCHAR
STARTCHAR afii10105
ENCODING 188
SWIDTH 602 0
DWIDTH 11 0
BBX 7 18 1 -4
BITMAP
06
06
00
00
7E
06
06
06
06
06
06
06
06
06
06
06
8E
FC
ENDCHAR
STARTCHAR afii10054
ENCODING 189
SWIDTH 602 0
DWIDTH 11 0
BBX 9 14 1 0
BITMAP
3F00
6100
C000
C000
E000
7000
3C00
0F00
0380
0180
0180
0180
8300
7E00
ENDCHAR
STARTCHAR afii10102
ENCODING 190
SWIDTH 602 0
DWIDTH 11 0
BBX 8 10 2 0
BITMAP
3E
C2
C0
E0
7C
1F
07
03
86
FC
ENDCHAR
STARTCHAR afii10104
ENCODING 191
SWIDTH 602 0
DWIDTH 11 0
BBX 8 14 1 0
BITMAP
33
33
00
00
FC
0C
0C
0C
0C
0C
0C
0C
0C
0C
ENDCHAR
STARTCHAR afii10017
ENCODING 192
SWIDTH 602 0
DWIDTH 11 0
BBX 11 14 0 0
BITMAP
0600
0E00
0E00
0B00
1300
1300
1180
2180
2180
3FC0
40C0
40C0
4060
8060
ENDCHAR
STARTCHAR afii10018
ENCODING 193
SWIDTH 602 0
DWIDTH 11 0
BBX 9 14 1 0
BITMAP
FF80
C000
C000
C000
C000
C000
FC00
C600
C300
C180
C180
C180
C300
FE00
ENDCHAR
STARTCHAR afii10019
ENCODING 194
SWIDTH 602 0
DWIDTH 11 0
BBX 9 14 1 0
BITMAP
FE00
C700
C300
C300
C300
C600
FC00
C600
C300
C180
C180
C180
C300
FE00
ENDCHAR
STARTCHAR afii10020
ENCODING 195
SWIDTH 602 0
DWIDTH 11 0
BBX 8 14 2 0
BITMAP
FF
C0
C0
C0
C0
C0
C0
C0
C0
C0
C0
C0
C0
C0
ENDCHAR
STARTCHAR afii10021
ENCODING 196
SWIDTH 602 0
DWIDTH 11 0
BBX 10 17 1 -3
BITMAP
3F80
3180
3180
3180
3180
3180
3180
3180
3180
3180
6180
6180
6180
FFC0
C0C0
C0C0
C0C0
ENDCHAR
STARTCHAR afii10022
ENCODING 197
SWIDTH 602 0
DWIDTH 11 0
BBX 9 14 2 0
BITMAP
FF80
C000
C000
C000
C000
C000
FF00
C000
C000
C000
C000
C000
C000
FF80
ENDCHAR
STARTCHAR afii10024
ENCODING 198
SWIDTH 602 0
DWIDTH 11 0
BBX 10 14 1 0
BITMAP
8C40
CCC0
4C80
6D80
2D00
3F00
1E00
3F00
3F00
6D80
6D80
CCC0
CCC0
CCC0
ENDCHAR
STARTCHAR afii10025
ENCODING 199
SWIDTH 602 0
DWIDTH 11 0
BBX 9 14 1 0
BITMAP
FE00
8700
0300
0300
0300
0600
3C00
0600
0300
0180
0180
0180
8300
FE00
ENDCHAR
STARTCHAR afii10026
ENCODING 200
SWIDTH 602 0
DWIDTH 11 0
BBX 9 14 1 0
BITMAP
8180
8380
8380
8780
8680
8C80
8C80
9880
B880
B080
F080
E080
C080
C080
ENDCHAR
STARTCHAR afii10027
ENCODING 201
SWIDTH 602 0
DWIDTH 11 0
BBX 9 17 1 0
BITMAP
3600
1C00
0000
8180
8380
8380
8780
8680
8C80
8C80
9880
B880
B080
F080
E080
C080
C080
ENDCHAR
STARTCHAR afii10028
ENCODING 202
SWIDTH 602 0
DWIDTH 11 0
BBX 10 14 1 0
BITMAP
C180
C300
C200
C400
C800
D800
D000
F800
DC00
CE00
C600
C300
C380
C1C0
ENDCHAR
STARTCHAR afii10029
ENCODING 203
SWIDTH 602 0
DWIDTH 11 0
BBX 9 14 1 0
BITMAP
3F80
3180
3180
3180
3180
3180
3180
3180
3180
3180
6180
6180
6180
C180
ENDCHAR
STARTCHAR afii10030
ENCODING 204
SWIDTH 602 0
DWIDTH 11 0
BBX 10 14 1 0
BITMAP
C0C0
C0C0
E1C0
A140
A140
A140
9240
9240
9240
9240
8C40
8C40
8C40
8040
ENDCHAR
STARTCHAR afii10031
ENCODING 205
SWIDTH 602 0
DWIDTH 11 0
BBX 9 14 1 0
BITMAP
C180
C180
C180
C180
C180
C180
FF80
C180
C180
C180
C180
C180
C180
C180
ENDCHAR
STARTCHAR afii10032
ENCODING 206
SWIDTH 602 0
DWIDTH 11 0
BBX 10 14 1 0
BITMAP
1E00
3300
6180
4080
C0C0
C0C0
C0C0
C0C0
C0C0
C0C0
4080
6180
3300
1E00
ENDCHAR
STARTCHAR afii10033
ENCODING 207
SWIDTH 602 0
DWIDTH 11 0
BBX 9 14 1 0
BITMAP
FF80
C180
C180
C180
C180
C180
C180
C180
C180
C180
C180
C180
C180
C180
ENDCHAR
STARTCHAR afii10034
ENCODING 208
SWIDTH 602 0
DWIDTH 11 0
BBX 9 14 2 0
BITMAP
FE00
C380
C180
C180
C180
C180
C300
FC00
C000
C000
C000
C000
C000
C000
ENDCHAR
STARTCHAR afii10035
ENCODING 209
SWIDTH 602 0
DWIDTH 11 0
BBX 10 14 1 0
BITMAP
0FC0
3840
6000
6000
C000
C000
C000
C000
C000
C000
6000
6000
3840
0FC0
ENDCHAR
STARTCHAR afii10036
ENCODING 210
SWIDTH 602 0
DWIDTH 11 0
BBX 12 14 0 0
BITMAP
FFF0
0600
0600
0600
0600
0600
0600
0600
0600
0600
0600
0600
0600
0600
ENDCHAR
STARTCHAR afii10037
ENCODING 211
SWIDTH 602 0
DWIDTH 11 0
BBX 11 14 0 0
BITMAP
C060
C060
60C0
60C0
3180
3180
1B00
1B00
0E00
0E00
0C00
1C00
7800
7000
ENDCHAR
STARTCHAR afii10038
ENCODING 212
SWIDTH 602 0
DWIDTH 11 0
BBX 10 14 1 0
BITMAP
0C00
0C00
3F00
6D80
CCC0
CCC0
CCC0
CCC0
CCC0
CCC0
6D80
3F00
0C00
0C00
ENDCHAR
STARTCHAR afii10039
ENCODING 213
SWIDTH 602 0
DWIDTH 11 0
BBX 11 14 0 0
BITMAP
E040
60C0
3080
3900
1B00
0E00
0E00
0E00
0F00
1300
3180
21C0
40C0
C060
ENDCHAR
STARTCHAR afii10040
ENCODING 214
SWIDTH 602 0
DWIDTH 11 0
BBX 10 17 1 -3
BITMAP
C180
C180
C180
C180
C180
C180
C180
C180
C180
C180
C180
C180
C180
FFC0
00C0
00C0
00C0
ENDCHAR
STARTCHAR afii10041
ENCODING 215
SWIDTH 602 0
DWIDTH 11 0
BBX 9 14 1 0
BITMAP
C180
C180
C180
C180
C180
C180
C180
E380
7D80
0180
0180
0180
0180
0180
ENDCHAR
STARTCHAR afii10042
ENCODING 216
SWIDTH 602 0
DWIDTH 11 0
BBX 9 14 1 0
BITMAP
C980
C980
C980
C980
C980
C980
C980
C980
C980
C980
C980
C980
C980
FF80
ENDCHAR
STARTCHAR afii10043
ENCODING 217
SWIDTH 602 0
DWIDTH 11 0
BBX 10 17 1 -3
BITMAP
C980
C980
C980
C980
C980
C980
C980
C980
C980
C980
C980
C980
C980
FFC0
00C0
00C0
00C0
ENDCHAR
STARTCHAR afii10044
ENCODING 218
SWIDTH 602 0
DWIDTH 11 0
BBX 10 14 0 0
BITMAP
F000
3000
3000
3000
3000
3000
3E00
3300
3180
30C0
30C0
30C0
3180
3F00
ENDCHAR
STARTCHAR afii10045
ENCODING 219
SWIDTH 602 0
DWIDTH 11 0
BBX 10 14 1 0
BITMAP
C0C0
C0C0
C0C0
C0C0
C0C0
C0C0
F0C0
D8C0
CCC0
C6C0
C6C0
C6C0
CCC0
F8C0
ENDCHAR
STARTCHAR afii10046
ENCODING 220
SWIDTH 602 0
DWIDTH 11 0
BBX 9 14 1 0
BITMAP
C000
C000
C000
C000
C000
C000
FC00
C600
C300
C180
C180
C180
C300
FE00
ENDCHAR
STARTCHAR afii10047
ENCODING 221
SWIDTH 602 0
DWIDTH 11 0
BBX 10 14 1 0
BITMAP
FC00
8700
0180
0180
00C0
00C0
3FC0
00C0
00C0
00C0
0180
0180
8700
FC00
ENDCHAR
STARTCHAR afii10048
ENCODING 222
SWIDTH 602 0
DWIDTH 11 0
BBX 10 14 1 0
BITMAP
C700
CD80
C880
D8C0
D8C0
D8C0
F8C0
D8C0
D8C0
D8C0
D8C0
C880
CD80
C700
ENDCHAR
STARTCHAR afii10049
ENCODING 223
SWIDTH 602 0
DWIDTH 11 0
BBX 10 14 0 0
BITMAP
0FC0
38C0
30C0
30C0
30C0
38C0
1FC0
0CC0
0CC0
18C0
38C0
30C0
60C0
E0C0
ENDCHAR
STARTCHAR afii10065
ENCODING 224
SWIDTH 602 0
DWIDTH 11 0
BBX 10 10 1 0
BITMAP
7E00
4300
0300
0300
3F00
6300
C300
C300
C700
7DC0
ENDCHAR
STARTCHAR afii10066
ENCODING 225
SWIDTH 602 0
DWIDTH 11 0
BBX 10 14 1 0
BITMAP
0FC0
3000
6000
6000
DE00
E180
C180
C0C0
C0C0
C0C0
C0C0
6180
6180
1E00
ENDCHAR
STARTCHAR afii10067
ENCODING 226
SWIDTH 602 0
DWIDTH 11 0
BBX 8 10 2 0
BITMAP
FE
C7
C3
C6
FC
C6
C3
C3
C3
FE
ENDCHAR
STARTCHAR afii10068
ENCODING 227
SWIDTH 602 0
DWIDTH 11 0
BBX 7 10 3 0
BITMAP
FE
C0
C0
C0
C0
C0
C0
C0
C0
C0
ENDCHAR
STARTCHAR afii10069
ENCODING 228
SWIDTH 602 0
DWIDTH 11 0
BBX 10 12 1 -2
BITMAP
3F80
3180
3180
3180
3180
3180
6180
6180
6180
FFC0
C0C0
C0C0
ENDCHAR
STARTCHAR afii10070
ENCODING 229
SWIDTH 602 0
DWIDTH 11 0
BBX 9 10 1 0
BITMAP
1E00
6300
4180
C180
FF80
C000
C000
4000
6080
1F80
ENDCHAR
STARTCHAR afii10072
ENCODING 230
SWIDTH 602 0
DWIDTH 11 0
BBX 10 10 1 0
BITMAP
CCC0
CCC0
6D80
6D80
3F00
2D00
6D80
6D80
CCC0
CCC0
ENDCHAR
STARTCHAR afii10073
ENCODING 231
SWIDTH 602 0
DWIDTH 11 0
BBX 8 10 2 0
BITMAP
FE
87
03
06
3C
06
03
03
83
FE
ENDCHAR
STARTCHAR afii10074
ENCODING 232
SWIDTH 602 0
DWIDTH 11 0
BBX 8 10 2 0
BITMAP
83
87
8D
8D
99
99
B1
B1
E1
C1
ENDCHAR
STARTCHAR afii10075
ENCODING 233
SWIDTH 602 0
DWIDTH 11 0
BBX 8 13 2 0
BITMAP
6C
38
00
83
87
8D
8D
99
99
B1
B1
E1
C1
ENDCHAR
STARTCHAR afii10076
ENCODING 234
SWIDTH 602 0
DWIDTH 11 0
BBX 9 10 2 0
BITMAP
C300
C400
CC00
D800
D000
F800
DC00
CE00
C700
C380
ENDCHAR
STARTCHAR afii10077
ENCODING 235
SWIDTH 602 0
DWIDTH 11 0
BBX 9 10 1 0
BITMAP
3F80
3180
3180
3180
3180
3180
6180
6180
6180
C180
ENDCHAR
STARTCHAR afii10078
ENCODING 236
SWIDTH 602 0
DWIDTH 11 0
BBX 10 10 1 0
BITMAP
E1C0
E1C0
B2C0
B2C0
B2C0
9CC0
9CC0
88C0
88C0
80C0
ENDCHAR
STARTCHAR afii10079
ENCODING 237
SWIDTH 602 0
DWIDTH 11 0
BBX 8 10 2 0
BITMAP
C3
C3
C3
C3
FF
C3
C3
C3
C3
C3
ENDCHAR
STARTCHAR afii10080
ENCODING 238
SWIDTH 602 0
DWIDTH 11 0
BBX 10 10 1 0
BITMAP
1E00
6180
6180
C0C0
C0C0
C0C0
C0C0
6180
6180
1E00
ENDCHAR
STARTCHAR afii10081
ENCODING 239
SWIDTH 602 0
DWIDTH 11 0
BBX 8 10 2 0
BITMAP
FF
C3
C3
C3
C3
C3
C3
C3
C3
C3
ENDCHAR
STARTCHAR afii10082
ENCODING 240
SWIDTH 602 0
DWIDTH 11 0
BBX 9 14 2 -4
BITMAP
DE00
E300
C180
C180
C180
C180
C180
C300
E300
DE00
C000
C000
C000
C000
ENDCHAR
STARTCHAR afii10083
ENCODING 241
SWIDTH 602 0
DWIDTH 11 0
BBX 9 10 1 0
BITMAP
1F80
7080
6000
C000
C000
C000
C000
6000
7080
1F80
ENDCHAR
STARTCHAR afii10084
ENCODING 242
SWIDTH 602 0
DWIDTH 11 0
BBX 8 10 1 0
BITMAP
FF
18
18
18
18
18
18
18
18
18
ENDCHAR
STARTCHAR afii10085
ENCODING 243
SWIDTH 602 0
DWIDTH 11 0
BBX 10 14 1 -4
BITMAP
C0C0
E080
6080
6100
3100
3200
1A00
1A00
1C00
0C00
0800
0800
1000
6000
ENDCHAR
STARTCHAR afii10086
ENCODING 244
SWIDTH 602 0
DWIDTH 11 0
BBX 10 18 1 -4
BITMAP
0C00
0C00
0C00
0C00
3F00
4C80
CCC0
CCC0
CCC0
CCC0
CCC0
CCC0
4C80
3F00
0C00
0C00
0C00
0C00
ENDCHAR
STARTCHAR afii10087
ENCODING 245
SWIDTH 602 0
DWIDTH 11 0
BBX 10 10 1 0
BITMAP
E080
7100
3300
1A00
1C00
0E00
1600
2300
6380
C1C0
ENDCHAR
STARTCHAR afii10088
ENCODING 246
SWIDTH 602 0
DWIDTH 11 0
BBX 9 12 2 -2
BITMAP
C300
C300
C300
C300
C300
C300
C300
C300
C300
FF80
0180
0180
ENDCHAR
STARTCHAR afii10089
ENCODING 247
SWIDTH 602 0
DWIDTH 11 0
BBX 8 10 2 0
BITMAP
C3
C3
C3
C3
C3
E7
7B
03
03
03
ENDCHAR
STARTCHAR afii10090
ENCODING 248
SWIDTH 602 0
DWIDTH 11 0
BBX 9 10 1 0
BITMAP
C980
C980
C980
C980
C980
C980
C980
C980
C980
FF80
ENDCHAR
STARTCHAR afii10091
ENCODING 249
SWIDTH 602 0
DWIDTH 11 0
BBX 10 12 1 -2
BITMAP
C980
C980
C980
C980
C980
C980
C980
C980
C980
FFC0
00C0
00C0
ENDCHAR
STARTCHAR afii10092
ENCODING 250
SWIDTH 602 0
DWIDTH 11 0
BBX 10 10 0 0
BITMAP
F000
3000
3000
3000
3F00
3180
30C0
30C0
30C0
3F80
ENDCHAR
STARTCHAR afii10093
ENCODING 251
SWIDTH 602 0
DWIDTH 11 0
BBX 10 10 1 0
BITMAP
C0C0
C0C0
C0C0
C0C0
F8C0
CCC0
C6C0
C6C0
C6C0
FCC0
ENDCHAR
STARTCHAR afii10094
ENCODING 252
SWIDTH 602 0
DWIDTH 11 0
BBX 8 10 2 0
BITMAP
C0
C0
C0
C0
FC
C6
C3
C3
C3
FE
ENDCHAR
STARTCHAR afii10095
ENCODING 253
SWIDTH 602 0
DWIDTH 11 0
BBX 9 10 1 0
BITMAP
FC00
8700
0300
0180
3F80
0180
0180
0300
8700
FC00
ENDCHAR
STARTCHAR afii10096
ENCODING 254
SWIDTH 602 0
DWIDTH 11 0
BBX 10 10 1 0
BITMAP
C700
CD80
D8C0
D8C0
F8C0
D8C0
D8C0
D8C0
CD80
C700
ENDCHAR
STARTCHAR afii10097
ENCODING 255
SWIDTH 602 0
DWIDTH 11 0
BBX 9 10 1 0
BITMAP
3F80
6180
6180
6180
3180
1F80
1980
3180
6180
C180
ENDCHAR
STARTCHAR tilde
ENCODING -1
SWIDTH 602 0
DWIDTH 11 0
BBX 6 2 3 11
BITMAP
F4
BC
ENDCHAR
STARTCHAR florin
ENCODING -1
SWIDTH 602 0
DWIDTH 11 0
BBX 9 18 2 -4
BITMAP
0780
0C00
1800
1800
3000
3000
FE00
3000
3000
3000
3000
3000
6000
6000
6000
6000
C000
C000
ENDCHAR
STARTCHAR circumflex
ENCODING -1
SWIDTH 602 0
DWIDTH 11 0
BBX 6 2 3 11
BITMAP
78
CC
ENDCHAR
STARTCHAR OE
ENCODING -1
SWIDTH 602 0
DWIDTH 11 0
BBX 11 14 1 0
BITMAP
1FC0
3600
6600
4600
C600
C600
C600
C7C0
C600
C600
4600
6600
3600
1FE0
ENDCHAR
STARTCHAR oe
ENCODING -1
SWIDTH 602 0
DWIDTH 11 0
BBX 10 10 0 0
BITMAP
3B00
6E80
CCC0
CCC0
CFC0
CC00
CC00
CC00
6E40
3BC0
ENDCHAR
STARTCHAR Scaron
ENCODING -1
SWIDTH 602 0
DWIDTH 11 0
BBX 9 17 1 0
BITMAP
6600
3C00
0000
3F00
6100
C000
C000
E000
7000
3C00
0F00
0380
0180
0180
0180
8300
7E00
ENDCHAR
STARTCHAR scaron
ENCODING -1
SWIDTH 602 0
DWIDTH 11 0
BBX 8 13 2 0
BITMAP
66
3C
00
3E
C2
C0
E0
7C
1F
07
03
86
FC
ENDCHAR
STARTCHAR Zcaron
ENCODING -1
SWIDTH 602 0
DWIDTH 11 0
BBX 10 17 1 0
BITMAP
3300
1E00
0000
FFC0
01C0
0180
0380
0700
0600
0E00
1C00
1800
3000
7000
6000
C000
FFC0
ENDCHAR
STARTCHAR zcaron
ENCODING -1
SWIDTH 602 0
DWIDTH 11 0
BBX 9 13 1 0
BITMAP
3300
1E00
0000
FF80
0100
0200
0400
0C00
1800
3000
2000
4000
FF80
ENDCHAR
STARTCHAR Ydieresis
ENCODING -1
SWIDTH 602 0
DWIDTH 11 0
BBX 12 16 0 0
BITMAP
1980
0000
E030
6020
7040
3080
1880
1D00
0F00
0600
0600
0600
0600
0600
0600
0600
ENDCHAR
ENDFONT
